<svg width="32" height="32" viewBox="0 0 32 32" fill="none" xmlns="http://www.w3.org/2000/svg">
<path d="M17.5858 3.0748e-06L1 1.74846e-07C0.447719 7.8281e-08 3.41863e-06 0.447716 3.32207e-06 1L4.22115e-07 17.5858C2.66344e-07 18.4767 1.07714 18.9229 1.7071 18.2929L18.2929 1.70711C18.9229 1.07715 18.4767 3.23057e-06 17.5858 3.0748e-06Z" fill="#C282D1"/>
<path d="M29.5858 12L13 12C12.4477 12 12 12.4477 12 13L12 29.5858C12 30.4767 13.0771 30.9229 13.7071 30.2929L30.2929 13.7071C30.9229 13.0771 30.4767 12 29.5858 12Z" fill="#C282D1"/>
</svg>
